<svg xmlns="http://www.w3.org/2000/svg" width="880" height="436" viewBox="0 0 880 436" role="img">
<style>
.s{font-family:-apple-system,BlinkMacSystemFont,'Segoe UI',Inter,Helvetica,Arial,sans-serif} .m{font-family:ui-monospace,SFMono-Regular,Menlo,Consolas,'Liberation Mono',monospace}

@media (prefers-reduced-motion: reduce){ .anim{animation:none!important} .pk{display:none} }
</style>
<defs>
<pattern id="g1" width="20" height="20" patternUnits="userSpaceOnUse"><path d="M20 0H0V20" fill="none" stroke="#E8EEF6" stroke-width="1"/></pattern>
<pattern id="g2" width="100" height="100" patternUnits="userSpaceOnUse"><rect width="100" height="100" fill="url(#g1)"/><path d="M100 0H0V100" fill="none" stroke="#D6E0EE" stroke-width="1"/></pattern>
</defs>
<rect width="880" height="436" rx="14" fill="#F7F9FC"/>
<rect x="1" y="1" width="878" height="434" rx="13" fill="url(#g2)" stroke="#C3D0E3"/>
<text x="36" y="44" class="m" font-size="12" letter-spacing="2" fill="#0E8FA0">SHEET 05</text><text x="112" y="44" class="m" font-size="12" letter-spacing="2" fill="#8394AE">/</text><text x="128" y="44" class="m" font-size="12" letter-spacing="2" fill="#0B1220">STACK</text><text x="844" y="44" text-anchor="end" class="m" font-size="11" fill="#8394AE">by layer, not by logo</text><line x1="36" y1="58" x2="844" y2="58" stroke="#C3D0E3" stroke-dasharray="2 4"/><rect x="36" y="78" width="808" height="46" rx="8" fill="#FFFFFF" stroke="#C3D0E3"/><text x="54" y="106" class="m" font-size="11" letter-spacing="2" fill="#0E8FA0">CLIENT</text><rect x="160" y="89" width="84.0" height="24" rx="5" fill="#F7F9FC" stroke="#C3D0E3"/><text x="202.0" y="105" text-anchor="middle" class="m" font-size="11" fill="#0B1220">TypeScript</text><rect x="251.0" y="89" width="49.0" height="24" rx="5" fill="#F7F9FC" stroke="#C3D0E3"/><text x="275.5" y="105" text-anchor="middle" class="m" font-size="11" fill="#0B1220">React</text><rect x="307.0" y="89" width="63.0" height="24" rx="5" fill="#F7F9FC" stroke="#C3D0E3"/><text x="338.5" y="105" text-anchor="middle" class="m" font-size="11" fill="#0B1220">Next.js</text><rect x="377.0" y="89" width="63.0" height="24" rx="5" fill="#F7F9FC" stroke="#C3D0E3"/><text x="408.5" y="105" text-anchor="middle" class="m" font-size="11" fill="#0B1220">Angular</text><rect x="447.0" y="89" width="161.0" height="24" rx="5" fill="#F7F9FC" stroke="#C3D0E3"/><text x="527.5" y="105" text-anchor="middle" class="m" font-size="11" fill="#0B1220">Vue · micro-frontends</text><rect x="615.0" y="89" width="70.0" height="24" rx="5" fill="#F7F9FC" stroke="#C3D0E3"/><text x="650.0" y="105" text-anchor="middle" class="m" font-size="11" fill="#0B1220">Svelte 5</text><rect x="692.0" y="89" width="49.0" height="24" rx="5" fill="#F7F9FC" stroke="#C3D0E3"/><text x="716.5" y="105" text-anchor="middle" class="m" font-size="11" fill="#0B1220">Astro</text><rect x="748.0" y="89" width="70.0" height="24" rx="5" fill="#F7F9FC" stroke="#C3D0E3"/><text x="783.0" y="105" text-anchor="middle" class="m" font-size="11" fill="#0B1220">Tailwind</text><rect x="36" y="134" width="808" height="46" rx="8" fill="#FFFFFF" stroke="#C3D0E3"/><text x="54" y="162" class="m" font-size="11" letter-spacing="2" fill="#0E8FA0">MOBILE</text><rect x="160" y="145" width="42.0" height="24" rx="5" fill="#F7F9FC" stroke="#C3D0E3"/><text x="181.0" y="161" text-anchor="middle" class="m" font-size="11" fill="#0B1220">Expo</text><rect x="209.0" y="145" width="98.0" height="24" rx="5" fill="#F7F9FC" stroke="#C3D0E3"/><text x="258.0" y="161" text-anchor="middle" class="m" font-size="11" fill="#0B1220">React Native</text><rect x="314.0" y="145" width="63.0" height="24" rx="5" fill="#F7F9FC" stroke="#C3D0E3"/><text x="345.5" y="161" text-anchor="middle" class="m" font-size="11" fill="#0B1220">Flutter</text><rect x="36" y="190" width="808" height="46" rx="8" fill="#FFFFFF" stroke="#C3D0E3"/><text x="54" y="218" class="m" font-size="11" letter-spacing="2" fill="#0E8FA0">SERVICES</text><rect x="160" y="201" width="56.0" height="24" rx="5" fill="#F7F9FC" stroke="#C3D0E3"/><text x="188.0" y="217" text-anchor="middle" class="m" font-size="11" fill="#0B1220">NestJS</text><rect x="223.0" y="201" width="77.0" height="24" rx="5" fill="#F7F9FC" stroke="#C3D0E3"/><text x="261.5" y="217" text-anchor="middle" class="m" font-size="11" fill="#0B1220">.NET / C#</text><rect x="307.0" y="201" width="63.0" height="24" rx="5" fill="#F7F9FC" stroke="#C3D0E3"/><text x="338.5" y="217" text-anchor="middle" class="m" font-size="11" fill="#0B1220">Laravel</text><rect x="377.0" y="201" width="28.0" height="24" rx="5" fill="#F7F9FC" stroke="#C3D0E3"/><text x="391.0" y="217" text-anchor="middle" class="m" font-size="11" fill="#0B1220">Go</text><rect x="412.0" y="201" width="91.0" height="24" rx="5" fill="#F7F9FC" stroke="#C3D0E3"/><text x="457.5" y="217" text-anchor="middle" class="m" font-size="11" fill="#0B1220">Rust · Axum</text><rect x="510.0" y="201" width="63.0" height="24" rx="5" fill="#F7F9FC" stroke="#C3D0E3"/><text x="541.5" y="217" text-anchor="middle" class="m" font-size="11" fill="#0B1220">FastAPI</text><rect x="580.0" y="201" width="63.0" height="24" rx="5" fill="#F7F9FC" stroke="#C3D0E3"/><text x="611.5" y="217" text-anchor="middle" class="m" font-size="11" fill="#0B1220">GraphQL</text><rect x="36" y="246" width="808" height="46" rx="8" fill="#FFFFFF" stroke="#C3D0E3"/><text x="54" y="274" class="m" font-size="11" letter-spacing="2" fill="#0E8FA0">DATA</text><rect x="160" y="257" width="126.0" height="24" rx="5" fill="#F7F9FC" stroke="#C3D0E3"/><text x="223.0" y="273" text-anchor="middle" class="m" font-size="11" fill="#0B1220">PostgreSQL · RLS</text><rect x="293.0" y="257" width="70.0" height="24" rx="5" fill="#F7F9FC" stroke="#C3D0E3"/><text x="328.0" y="273" text-anchor="middle" class="m" font-size="11" fill="#0B1220">Supabase</text><rect x="370.0" y="257" width="49.0" height="24" rx="5" fill="#F7F9FC" stroke="#C3D0E3"/><text x="394.5" y="273" text-anchor="middle" class="m" font-size="11" fill="#0B1220">MySQL</text><rect x="426.0" y="257" width="56.0" height="24" rx="5" fill="#F7F9FC" stroke="#C3D0E3"/><text x="454.0" y="273" text-anchor="middle" class="m" font-size="11" fill="#0B1220">SQLite</text><rect x="489.0" y="257" width="112.0" height="24" rx="5" fill="#F7F9FC" stroke="#C3D0E3"/><text x="545.0" y="273" text-anchor="middle" class="m" font-size="11" fill="#0B1220">Redis · BullMQ</text><rect x="608.0" y="257" width="56.0" height="24" rx="5" fill="#F7F9FC" stroke="#C3D0E3"/><text x="636.0" y="273" text-anchor="middle" class="m" font-size="11" fill="#0B1220">Prisma</text><rect x="671.0" y="257" width="63.0" height="24" rx="5" fill="#F7F9FC" stroke="#C3D0E3"/><text x="702.5" y="273" text-anchor="middle" class="m" font-size="11" fill="#0B1220">Drizzle</text><rect x="36" y="302" width="808" height="46" rx="8" fill="#FFFFFF" stroke="#C3D0E3"/><text x="54" y="330" class="m" font-size="11" letter-spacing="2" fill="#0E8FA0">PLATFORM</text><rect x="160" y="313" width="35.0" height="24" rx="5" fill="#F7F9FC" stroke="#C3D0E3"/><text x="177.5" y="329" text-anchor="middle" class="m" font-size="11" fill="#0B1220">AWS</text><rect x="202.0" y="313" width="56.0" height="24" rx="5" fill="#F7F9FC" stroke="#C3D0E3"/><text x="230.0" y="329" text-anchor="middle" class="m" font-size="11" fill="#0B1220">Docker</text><rect x="265.0" y="313" width="112.0" height="24" rx="5" fill="#F7F9FC" stroke="#C3D0E3"/><text x="321.0" y="329" text-anchor="middle" class="m" font-size="11" fill="#0B1220">GitHub Actions</text><rect x="384.0" y="313" width="56.0" height="24" rx="5" fill="#F7F9FC" stroke="#C3D0E3"/><text x="412.0" y="329" text-anchor="middle" class="m" font-size="11" fill="#0B1220">Vercel</text><rect x="447.0" y="313" width="63.0" height="24" rx="5" fill="#F7F9FC" stroke="#C3D0E3"/><text x="478.5" y="329" text-anchor="middle" class="m" font-size="11" fill="#0B1220">Hetzner</text><rect x="517.0" y="313" width="105.0" height="24" rx="5" fill="#F7F9FC" stroke="#C3D0E3"/><text x="569.5" y="329" text-anchor="middle" class="m" font-size="11" fill="#0B1220">Cloudflare R2</text><rect x="629.0" y="313" width="49.0" height="24" rx="5" fill="#F7F9FC" stroke="#C3D0E3"/><text x="653.5" y="329" text-anchor="middle" class="m" font-size="11" fill="#0B1220">Nginx</text><rect x="36" y="358" width="808" height="46" rx="8" fill="#FFFFFF" stroke="#C3D0E3"/><text x="54" y="386" class="m" font-size="11" letter-spacing="2" fill="#0E8FA0">PRODUCT</text><rect x="160" y="369" width="56.0" height="24" rx="5" fill="#F7F9FC" stroke="#C3D0E3"/><text x="188.0" y="385" text-anchor="middle" class="m" font-size="11" fill="#0B1220">Stripe</text><rect x="223.0" y="369" width="84.0" height="24" rx="5" fill="#F7F9FC" stroke="#C3D0E3"/><text x="265.0" y="385" text-anchor="middle" class="m" font-size="11" fill="#0B1220">OpenAI API</text><rect x="314.0" y="369" width="119.0" height="24" rx="5" fill="#F7F9FC" stroke="#C3D0E3"/><text x="373.5" y="385" text-anchor="middle" class="m" font-size="11" fill="#0B1220">Whisper · local</text><rect x="440.0" y="369" width="56.0" height="24" rx="5" fill="#F7F9FC" stroke="#C3D0E3"/><text x="468.0" y="385" text-anchor="middle" class="m" font-size="11" fill="#0B1220">Sentry</text><rect x="503.0" y="369" width="84.0" height="24" rx="5" fill="#F7F9FC" stroke="#C3D0E3"/><text x="545.0" y="385" text-anchor="middle" class="m" font-size="11" fill="#0B1220">Playwright</text><rect x="594.0" y="369" width="77.0" height="24" rx="5" fill="#F7F9FC" stroke="#C3D0E3"/><text x="632.5" y="385" text-anchor="middle" class="m" font-size="11" fill="#0B1220">Turborepo</text>
</svg>